<?xml version="1.0" encoding="UTF-8" standalone="no"?>
<!DOCTYPE svg PUBLIC "-//W3C//DTD SVG 1.1//EN"
"http://www.w3.org/Graphics/SVG/1.1/DTD/svg11.dtd">


<!-- Page 1 -->
<svg x="0" y="0" width="100" height="60" viewBox="0 0 3055 1130" version="1.1" xmlns="http://www.w3.org/2000/svg" xmlns:xlink="http://www.w3.org/1999/xlink"
style="display: block;margin-left: auto;margin-right: auto;">
<defs>
<clipPath id="c_1"><path d="M0,0H3055V1130H0Z" /></clipPath>


</defs>
<g clip-path="url(#c_1)">

<path d="M0,1130.6H3055.6V0H0V1130.6Z" class="g0_1" />
<path d="M227.6,274.3L194.1,446.6H307.2c36,0,68,-32.6,75.5,-71.2l5.8,-29.9C396,306.9,370.7,274.3,331.3,274.3ZM335.4,662.5l13.9,-71.1c7.8,-40.3,-17.6,-72.9,-56.1,-72.9H180.1L138.4,732.7H253.2c35.5,-1.7,74.9,-32.5,82.2,-70.2M357.9,480.8c54.9,8.6,70.5,69.4,62.5,110.6l-13.9,71.1C392,737,310.6,803,239.4,803.9H109.1c-34.3,0,-50.7,-21.5,-43.8,-56.6l95,-488.4c6.5,-33.4,31.4,-55.7,65.7,-55.7H345.1c75.2,.9,129.5,60.9,113.7,142.3L453,375.4c-6.4,32.6,-41.3,93.4,-95.1,105.4Z" class="g1_1" />
<path d="M519.5,971.8c-28.5,0,-64.1,-15.7,-91.8,-37.9c-7.4,-5.9,-7.8,-17,-.9,-23.4l32.9,-31c5.6,-5.2,14.2,-5.7,20.2,-.9c18,14.5,38.2,22.9,53.3,22.9c35.1,0,70.8,-29.1,77.8,-65.1l11.1,-57c.8,-4.1,-4.3,-6.6,-7.1,-3.6c-19.3,20.8,-48,29.1,-62.3,29.8C479.1,809.9,426,748.2,440.5,673.6L493,403.4c1.5,-7.3,7.9,-12.5,15.3,-12.5H546c9.8,0,17.2,8.9,15.3,18.5L509.9,673.6c-6.9,35.2,20,64.3,56.2,63.4c34.3,0,67.7,-18,74.3,-51.4L695.3,403.4c1.4,-7.3,7.8,-12.5,15.2,-12.5h37.8c9.7,0,17.1,8.9,15.2,18.5l-83.1,427C664.6,913.5,591.5,971.8,519.5,971.8Z" class="g1_1" />
<path d="M1630.6,475.1c1.2,-6.1,6.5,-10.5,12.8,-10.5h102.3c32.6,0,51.4,22.2,45.2,53.9l-28.3,145.7c-18.5,95.1,-108.6,144,-190,144c-82.2,0,-153.1,-49.7,-134.1,-147.4l62.2,-319.6c18.8,-96.9,107.2,-145.7,189.4,-145.7c77.8,0,145.1,53.5,130.8,158.3c-.9,6.5,-6.4,11.4,-13,11.4h-45.8c-7.7,0,-13.7,-6.6,-13,-14.3c4.8,-55.7,-30.9,-84.3,-72.8,-84.3c-46.3,0,-95.9,25.7,-105.4,74.6l-62.1,319.6c-9.7,49.7,31.4,76.2,77.7,76.2c46.2,0,94.9,-25.7,105,-72.8l22.1,-113.8c1.6,-8.1,-4.6,-15.6,-12.8,-15.6h-66c-8.2,0,-14.4,-7.5,-12.8,-15.5Z" class="g1_1" />
<path d="M1925.4,738.7c32.6,0,72,-26.5,78,-57.4l8.2,-41.9c6.7,-34.3,-18.7,-58.3,-55.5,-58.3c-36,0,-71.6,29.1,-78.8,66l-4.7,24c-7.2,36.8,16.8,67.6,52.8,67.6M1803.2,671.1l4.7,-24c14,-72,80.8,-133.7,159.7,-133.7c27.4,0,57.3,18,61.4,45.4l5.3,-36c7,-36,-17.2,-66,-54,-66c-14.5,0,-36,7.4,-58.9,23.2c-6.7,4.6,-15.9,2.1,-19.3,-5.2l-15.3,-33.1c-2.7,-5.7,-.9,-12.5,4.2,-16.1c32.8,-23.2,72.3,-39,102.9,-39c72.9,0,124.4,60.8,109.8,136.2l-52.5,269.6c-1.2,6.2,-6.6,10.6,-12.8,10.6H2007c-7.4,0,-13.3,-6.1,-13,-13.5l1.1,-30.2c-15.6,36,-61.8,48.9,-83.2,48.9c-73.7,0,-123,-63.5,-108.7,-137.1Z" class="g1_1" />
<path d="M2163.5,803h-41.9c-8.3,0,-14.4,-7.5,-12.9,-15.5l75.1,-386.1c1.2,-6.1,6.6,-10.5,12.9,-10.5h30.4c7.1,0,12.9,5.7,13,12.8l.5,27.4c23.7,-33.4,57.5,-44.5,82.5,-45.4c34.5,-.8,76.7,15.4,87.8,68.6c30.9,-53.2,75.9,-68.6,115.3,-68.6c73.7,0,122,60,107.2,136.3l-52.7,270.4c-1.2,6.2,-6.5,10.6,-12.8,10.6H2526c-8.2,0,-14.4,-7.5,-12.8,-15.5L2564.8,522c19.1,-93.4,-116.3,-89.1,-133.6,0l-52.7,270.4c-1.2,6.2,-6.5,10.6,-12.8,10.6h-41.9c-8.2,0,-14.4,-7.5,-12.9,-15.5L2362.6,522c7,-36,-17,-66.9,-54.7,-66.9c-36.8,0,-72,30.9,-79,66.9l-52.6,270.4c-1.2,6.2,-6.6,10.6,-12.8,10.6Z" class="g1_1" />
<path d="M2803.6,589.7c35.9,0,71.9,-30.9,79.1,-67.7c7,-36,-17.1,-66,-53.1,-66c-36.9,0,-72.9,30.8,-80,67.7l-12.9,66Zm-10.5,53.9h-66.9l-5.3,27.5c-7,35.9,17.1,65.9,54,65.9c18.5,0,45.9,-9.7,71,-33.5c4.9,-4.6,12.4,-4.9,17.5,-.6l28.9,24.4c5.8,5,6.2,13.8,.8,19.2c-45,45.8,-94.9,59.9,-131.7,59.9c-72.9,0,-125.1,-57.4,-109.9,-135.3l28.8,-148.3c14,-72,85.8,-137.1,162.9,-137.1c73.7,0,123.6,60.9,108.9,136.3c-15.2,77.9,-86.2,121.6,-159,121.6Z" class="g1_1" />
<path d="M2437.9,331.3c-2.4,12.2,-12.2,20,-24.4,20c-11.8,0,-18.1,-7.8,-15.8,-20c2.3,-11.9,11.9,-20.5,23.7,-20.5c12.2,0,18.8,8.6,16.5,20.5Z" class="g1_1" />
<path d="M2582.8,278.9c-8.2,40.2,-41.5,73.6,-76.6,73.6c-34.2,0,-57.4,-28.7,-50.8,-62.6l13.3,-68.5c6.9,-35.5,41.4,-62.6,75.2,-62.6c33.1,0,55.6,32.3,47.9,73.6h-31.9c4.6,-23.6,-5.7,-41.3,-22.3,-41.3c-16.9,0,-33.7,13.7,-37,30.3l-13.3,68.5c-3.3,16.9,8.2,30.7,25.1,30.7c16.6,0,34,-18.9,38.5,-41.7Z" class="g1_1" />
<path d="M2716.1,221c3.9,-20.1,-10.1,-30.7,-26.3,-30.7c-15.7,0,-34.3,10.6,-38.3,30.7l-13.4,68.9c-3.9,20.1,10.7,30.3,26.4,30.3c16.2,0,34.3,-10.2,38.2,-30.3Zm18.5,68.9c-8.2,42.1,-44.5,62.6,-76.4,62.6c-32.2,0,-59.8,-20.5,-51.6,-62.6L2620,221c8.3,-42.6,44,-62.2,76,-62.2c32.2,0,60.3,19.6,52,62.2Z" class="g1_1" />
<path d="M2779.5,350.6H2748l36.9,-189.5h24.8l.3,18.5c10.9,-15.3,26.5,-20.4,38,-20.8c15.8,-.4,35.2,7,40.3,31.5c14.2,-24.5,34.9,-31.5,53,-31.5c33.9,0,56.1,27.5,49.3,62.6l-25.2,129.2h-31.5l25.2,-129.2c8.7,-43,-53.5,-41,-61.5,0l-25.1,129.2H2841l25.1,-129.2c3.2,-16.6,-7.8,-30.7,-25.1,-30.7c-17,0,-33.1,14.1,-36.3,30.7Z" class="g1_1" />
<path d="M1143.9,774.1c2.5,-5.7,4.8,-10.7,6.6,-14.4c3,-6.2,6.3,-13.8,10.3,-23.9c2.3,-5.9,4.4,-10.7,6.5,-15.7c1.2,-2.7,2.4,-5.6,3.7,-8.7l18.2,-42.3l28.8,-148c6.8,-34.7,33.8,-56.4,61.7,-63.9l30.6,-71.4c-68.3,1.8,-143.2,44.7,-160.8,135.3l-29.2,150c-9,46.2,1.8,80.4,23.6,103Z" class="g1_1" />
<path d="M1358.1,523.6l-28.7,147.5c-8.5,43.7,-48,65.9,-83.1,65.9c-5.2,0,-10.2,-.5,-15.1,-1.5c-4.5,7.4,-8.8,14.8,-13.2,22c-9.5,15.9,-18.3,30.6,-26.5,44.2c12.9,3.7,26.8,5.6,41.1,5.6c69.4,0,148.4,-44.6,166.2,-136.2l29.2,-150c7.5,-38.9,1.1,-69,-14.1,-90.9c-16.1,26.9,-35.1,58.8,-55.8,93.4Z" class="g1_1" />
<path fill-rule="evenodd" d="M1078.6,961.9c5.2,-3.8,350.7,-583.1,378.5,-629.5c9.3,-15.5,18.1,-30.1,27.1,-45.1l20,-33.3c2.2,-3.8,5.7,-8.4,6.7,-12.3c-2.7,-3.7,-75.7,-50.9,-84.2,-56.6c-4.4,-2.9,-7.7,-6.3,-13.4,-6.8l-135.7,317c-1.8,4.1,-3.2,8.6,-5.1,12.7c-22.8,50.3,-46,108.6,-68.4,159.7l-21,48.8c-3.7,8.8,-6.7,15.3,-10.2,24.1c-3.3,8.4,-6.9,17.2,-10.6,24.8c-9.6,19.7,-31.9,74.9,-41.8,97.7Z" class="g2_1" />
<path d="M1152.7,203.2h-44.4c-6.3,0,-11.7,4.5,-12.9,10.7l-72,386.3v-.1l-14.5,76.5L938.7,234.9C936,213.2,915.4,200.6,894.8,200.6c-24.8,0,-52.5,18.9,-57.8,50.6L732.7,787.5c-1.6,8,4.6,15.5,12.8,15.5h46.1c6.3,0,11.7,-4.5,12.8,-10.7l74.9,-402c.1,-.2,.1,-.4,.1,-.5v-.2l12.5,-67.9l1.1,-1.3c1.8,34.3,3.9,80.6,8.9,108.2c21.9,116.5,39.3,238.2,61.7,343.6c4.8,18.8,25.7,30.8,42.8,30.8c23.1,0,48.6,-16.3,54.9,-48.8L1165.5,218.8c1.6,-8.1,-4.6,-15.6,-12.8,-15.6Z" class="g1_1" />

</g>
</svg>
